<svg width="375" height="812" viewBox="0 0 375 812" fill="none" xmlns="http://www.w3.org/2000/svg">
  <!-- Background -->
  <rect width="375" height="812" fill="#F8FAFC"/>
  
  <!-- Status Bar -->
  <rect width="375" height="44" fill="#FFFFFF"/>
  <text x="20" y="28" font-family="SF Pro Display" font-size="14" font-weight="600" fill="#000000">9:41</text>
  <rect x="294" y="17" width="24" height="11" rx="2" fill="#000000"/>
  <rect x="322" y="15" width="15" height="15" rx="2" fill="#000000"/>
  <rect x="341" y="17" width="22" height="11" rx="5" fill="#34C759"/>
  
  <!-- Header -->
  <rect y="44" width="375" height="80" fill="#FFFFFF"/>
  <rect y="124" width="375" height="1" fill="#E5E7EB"/>
  
  <!-- Back Button -->
  <path d="M30 84 L36 78 L34.5 76.5 L26 85 L34.5 93.5 L36 92 L30 86" stroke="#3B82F6" stroke-width="2" fill="none"/>
  
  <!-- Title -->
  <text x="50" y="89" font-family="SF Pro Display" font-size="20" font-weight="600" fill="#1F2937">Features</text>
  
  <!-- Search Icon -->
  <circle cx="335" cy="84" r="18" fill="#F3F4F6"/>
  <circle cx="335" cy="84" r="6" stroke="#9CA3AF" stroke-width="1.5" fill="none"/>
  <path d="M340 89 L342 91" stroke="#9CA3AF" stroke-width="1.5"/>
  
  <!-- Main Content -->
  <rect y="125" width="375" height="600" fill="#F8FAFC"/>
  
  <!-- Feature Category Tabs -->
  <rect x="20" y="145" width="335" height="40" rx="20" fill="#FFFFFF"/>
  <rect x="25" y="150" width="80" height="30" rx="15" fill="#3B82F6"/>
  <text x="65" y="169" font-family="SF Pro Display" font-size="14" font-weight="600" fill="#FFFFFF" text-anchor="middle">Design</text>
  
  <text x="130" y="169" font-family="SF Pro Display" font-size="14" font-weight="500" fill="#6B7280" text-anchor="middle">Development</text>
  <text x="220" y="169" font-family="SF Pro Display" font-size="14" font-weight="500" fill="#6B7280" text-anchor="middle">Analytics</text>
  <text x="300" y="169" font-family="SF Pro Display" font-size="14" font-weight="500" fill="#6B7280" text-anchor="middle">Support</text>
  
  <!-- Feature Cards -->
  <!-- Card 1: Modern UI Components -->
  <rect x="20" y="205" width="335" height="100" rx="12" fill="#FFFFFF"/>
  <circle cx="50" cy="235" r="20" fill="#EFF6FF"/>
  <rect x="42" y="227" width="16" height="16" rx="3" fill="#3B82F6"/>
  <text x="80" y="230" font-family="SF Pro Display" font-size="16" font-weight="600" fill="#1F2937">Modern UI Components</text>
  <text x="80" y="245" font-family="SF Pro Display" font-size="13" fill="#6B7280">Pre-built components with clean design</text>
  <text x="80" y="260" font-family="SF Pro Display" font-size="13" fill="#6B7280">and smooth animations</text>
  
  <!-- Feature Icons -->
  <rect x="290" y="225" width="20" height="20" rx="4" fill="#F3F4F6"/>
  <rect x="315" y="225" width="20" height="20" rx="4" fill="#F3F4F6"/>
  <rect x="290" y="250" width="20" height="20" rx="4" fill="#F3F4F6"/>
  <rect x="315" y="250" width="20" height="20" rx="4" fill="#F3F4F6"/>
  
  <!-- Card 2: Responsive Design -->
  <rect x="20" y="315" width="335" height="100" rx="12" fill="#FFFFFF"/>
  <circle cx="50" cy="345" r="20" fill="#F0FDF4"/>
  <circle cx="50" cy="345" r="10" fill="#10B981"/>
  <text x="80" y="340" font-family="SF Pro Display" font-size="16" font-weight="600" fill="#1F2937">Responsive Design</text>
  <text x="80" y="355" font-family="SF Pro Display" font-size="13" fill="#6B7280">Automatically adapts to different</text>
  <text x="80" y="370" font-family="SF Pro Display" font-size="13" fill="#6B7280">screen sizes and devices</text>
  
  <!-- Device Icons -->
  <rect x="290" y="330" width="16" height="24" rx="2" fill="#10B981"/>
  <rect x="312" y="335" width="20" height="14" rx="2" fill="#10B981"/>
  
  <!-- Card 3: Dark Mode Support -->
  <rect x="20" y="425" width="335" height="100" rx="12" fill="#FFFFFF"/>
  <circle cx="50" cy="455" r="20" fill="#FEF3C7"/>
  <path d="M45 445 C45 450, 50 455, 55 455 C52 455, 50 452, 50 448 C50 444, 52 441, 55 441 C50 441, 45 446, 45 451" fill="#F59E0B"/>
  <text x="80" y="450" font-family="SF Pro Display" font-size="16" font-weight="600" fill="#1F2937">Dark Mode Support</text>
  <text x="80" y="465" font-family="SF Pro Display" font-size="13" fill="#6B7280">Beautiful dark theme that's easy</text>
  <text x="80" y="480" font-family="SF Pro Display" font-size="13" fill="#6B7280">on the eyes</text>
  
  <!-- Toggle Switch -->
  <rect x="290" y="445" width="40" height="20" rx="10" fill="#F59E0B"/>
  <circle cx="320" cy="455" r="8" fill="#FFFFFF"/>
  
  <!-- Card 4: SEO Optimized -->
  <rect x="20" y="535" width="335" height="100" rx="12" fill="#FFFFFF"/>
  <circle cx="50" cy="565" r="20" fill="#FDF2F8"/>
  <circle cx="50" cy="565" r="8" stroke="#EC4899" stroke-width="2" fill="none"/>
  <path d="M46 561 L50 565 L54 561" stroke="#EC4899" stroke-width="2" fill="none"/>
  <text x="80" y="560" font-family="SF Pro Display" font-size="16" font-weight="600" fill="#1F2937">SEO Optimized</text>
  <text x="80" y="575" font-family="SF Pro Display" font-size="13" fill="#6B7280">Built-in SEO best practices for</text>
  <text x="80" y="590" font-family="SF Pro Display" font-size="13" fill="#6B7280">better search engine visibility</text>
  
  <!-- SEO Score -->
  <rect x="290" y="550" width="45" height="30" rx="8" fill="#FDF2F8"/>
  <text x="312.5" y="570" font-family="SF Pro Display" font-size="16" font-weight="700" fill="#EC4899" text-anchor="middle">95</text>
  
  <!-- Bottom CTA -->
  <rect x="20" y="655" width="335" height="50" rx="25" fill="#3B82F6"/>
  <text x="187.5" y="685" font-family="SF Pro Display" font-size="16" font-weight="600" fill="#FFFFFF" text-anchor="middle">Explore All Features</text>
  
  <!-- Bottom Navigation -->
  <rect y="725" width="375" height="87" fill="#FFFFFF"/>
  <rect y="725" width="375" height="1" fill="#E5E7EB"/>
  
  <!-- Nav Items -->
  <circle cx="75" cy="755" r="16" fill="#F3F4F6"/>
  <rect x="69" y="749" width="12" height="12" rx="2" fill="#9CA3AF"/>
  <text x="75" y="780" font-family="SF Pro Display" font-size="10" fill="#9CA3AF" text-anchor="middle">Home</text>
  
  <circle cx="150" cy="755" r="16" fill="#3B82F6"/>
  <rect x="144" y="749" width="12" height="12" rx="2" fill="#FFFFFF"/>
  <text x="150" y="780" font-family="SF Pro Display" font-size="10" fill="#3B82F6" text-anchor="middle">Features</text>
  
  <circle cx="225" cy="755" r="16" fill="#F3F4F6"/>
  <circle cx="225" cy="755" r="6" fill="#9CA3AF"/>
  <text x="225" y="780" font-family="SF Pro Display" font-size="10" fill="#9CA3AF" text-anchor="middle">Gallery</text>
  
  <circle cx="300" cy="755" r="16" fill="#F3F4F6"/>
  <circle cx="300" cy="749" r="3" fill="#9CA3AF"/>
  <rect x="294" y="755" width="12" height="8" rx="1" fill="#9CA3AF"/>
  <text x="300" y="780" font-family="SF Pro Display" font-size="10" fill="#9CA3AF" text-anchor="middle">Profile</text>
</svg>
